<svg width="200" height="36" viewBox="0 0 200 36" fill="none" xmlns="http://www.w3.org/2000/svg">
	<defs>
		<linearGradient id="suiFlowGradientDark" x1="6" y1="6" x2="34" y2="30" gradientUnits="userSpaceOnUse">
			<stop stop-color="#7B3FE4"/>
			<stop offset="1" stop-color="#F17BC1"/>
		</linearGradient>
	</defs>
	<g aria-hidden="true">
		<circle cx="20" cy="18" r="16" fill="url(#suiFlowGradientDark)"/>
		<path
			d="M11.25 18.5c2.25 2.7 4.5 2.7 6.75 0c2.25-2.7 4.5-2.7 6.75 0"
			stroke="#FEFEFE"
			stroke-width="2.6"
			stroke-linecap="round"
			fill="none"
		/>
		<path
			d="M20 9.5c-4.15 0-7.51 3.37-7.51 7.52c0 4.06 3.09 8.07 7.51 9.34c4.42-1.27 7.51-5.28 7.51-9.34C27.51 12.87 24.15 9.5 20 9.5Zm0 13.04c-2.3-.82-4.02-3.08-4.02-5.52c0-3.03 2.51-5.48 4.02-5.48s4.02 2.45 4.02 5.48c0 2.44-1.72 4.7-4.02 5.52Z"
			fill="#FFFFFF"
			fill-opacity="0.9"
		/>
		<text
			x="44"
			y="23"
			fill="#F8FAFC"
			font-family="'Space Grotesk', 'Inter', 'Segoe UI', system-ui, sans-serif"
			font-size="18"
			font-weight="600"
			letter-spacing="0.06em"
		>SUI Flow</text>
	</g>
</svg>
